<svg width="227" height="140" viewBox="0 0 227 140" fill="none" xmlns="http://www.w3.org/2000/svg">
<path d="M93 44.0845L113.5 38L134 44.0845V62C134 66.3944 129.362 80.862 113.5 86C97.6377 80.862 93 66.3944 93 62V44.0845Z" fill="#158864"/>
<path d="M125.8 60.1053C125.8 67.0815 120.152 72.7368 113.185 72.7368C106.217 72.7368 100.569 67.0815 100.569 60.1053C100.569 53.129 106.217 47.4737 113.185 47.4737C120.152 47.4737 125.8 53.129 125.8 60.1053Z" fill="white"/>
<path fill-rule="evenodd" clip-rule="evenodd" d="M110.824 56.646C111.13 56.9647 111.119 57.4711 110.801 57.7771C110.24 58.3168 109.905 59.0432 109.905 59.8353C109.905 61.4277 111.289 62.8 113.101 62.8C114.912 62.8 116.296 61.4277 116.296 59.8353C116.296 59.0432 115.962 58.3168 115.4 57.7771C115.082 57.4711 115.072 56.9647 115.377 56.646C115.683 56.3272 116.189 56.3169 116.507 56.6229C117.358 57.4413 117.894 58.5753 117.894 59.8353C117.894 62.4013 115.702 64.4 113.101 64.4C110.499 64.4 108.307 62.4013 108.307 59.8353C108.307 58.5753 108.843 57.4413 109.694 56.6229C110.013 56.3169 110.518 56.3272 110.824 56.646Z" fill="#158864"/>
<path fill-rule="evenodd" clip-rule="evenodd" d="M113.101 58.2105C112.659 58.2105 112.302 57.8524 112.302 57.4105V55.2211C112.302 54.7792 112.659 54.4211 113.101 54.4211C113.542 54.4211 113.9 54.7792 113.9 55.2211V57.4105C113.9 57.8524 113.542 58.2105 113.101 58.2105Z" fill="#158864"/>
<path fill-rule="evenodd" clip-rule="evenodd" d="M208 2H19C18.4477 2 18 2.44772 18 3V123C18 123.552 18.4477 124 19 124H208C208.552 124 209 123.552 209 123V3C209 2.44772 208.552 2 208 2ZM19 0C17.3431 0 16 1.34315 16 3V123C16 124.657 17.3431 126 19 126H208C209.657 126 211 124.657 211 123V3C211 1.34315 209.657 0 208 0H19Z" fill="#231F20"/>
<path fill-rule="evenodd" clip-rule="evenodd" d="M160 131H66V126H160V131ZM64 133V124H162V133H64Z" fill="#231F20"/>
<path fill-rule="evenodd" clip-rule="evenodd" d="M2 133V138H225V133H2ZM1 131C0.447715 131 0 131.448 0 132V139C0 139.552 0.447709 140 0.999994 140H226C226.552 140 227 139.552 227 139V132C227 131.448 226.552 131 226 131H1Z" fill="#231F20"/>
<path fill-rule="evenodd" clip-rule="evenodd" d="M114 117H112C110.895 117 110 117.895 110 119C110 120.105 110.895 121 112 121H114C115.105 121 116 120.105 116 119C116 117.895 115.105 117 114 117ZM112 115C109.791 115 108 116.791 108 119C108 121.209 109.791 123 112 123H114C116.209 123 118 121.209 118 119C118 116.791 116.209 115 114 115H112Z" fill="#231F20"/>
<path fill-rule="evenodd" clip-rule="evenodd" d="M204 11H23L23 111H204V11ZM23 9C21.8954 9 21 9.89543 21 11V111C21 112.105 21.8954 113 23 113H204C205.105 113 206 112.105 206 111V11C206 9.89543 205.105 9 204 9H23Z" fill="#231F20"/>
<path fill-rule="evenodd" clip-rule="evenodd" d="M154 61C154 83.6437 135.644 102 113 102C90.3563 102 72 83.6437 72 61C72 38.3563 90.3563 20 113 20C135.644 20 154 38.3563 154 61ZM113 96C132.33 96 148 80.33 148 61C148 41.67 132.33 26 113 26C93.67 26 78 41.67 78 61C78 80.33 93.67 96 113 96Z" fill="#158864"/>
</svg>
