<svg xmlns="http://www.w3.org/2000/svg">
  <symbol id="cato-api-guard" viewBox="0 0 64 64">
    <rect width="64" height="64" rx="14" fill="#07152f"/>
    <path d="M32 10 49 20v24L32 54 15 44V20L32 10Z" fill="none" stroke="#35d3e8" stroke-width="4" stroke-linejoin="round"/>
    <path d="M32 19 41 24.5v13L32 43 23 37.5v-13L32 19Z" fill="#f26622"/>
    <path d="M32 26.5 36 29v6l-4 2.5-4-2.5v-6l4-2.5Z" fill="#fff"/>
  </symbol>
  <symbol id="cato-shield" viewBox="0 0 24 24">
    <path d="M12 2.5 20 6v6.2c0 4.5-3.1 7.9-8 9.3-4.9-1.4-8-4.8-8-9.3V6l8-3.5Z" fill="none" stroke="currentColor" stroke-width="1.8" stroke-linejoin="round"/>
    <path d="m8.5 12 2.2 2.2 4.9-5" fill="none" stroke="currentColor" stroke-width="1.8" stroke-linecap="round" stroke-linejoin="round"/>
  </symbol>
</svg>
